# File created by Blade
# Date/Time:  Tue Apr 07 21:33:03 2015
# Frame Rate: 120.000 fps
#------------------------------------------------------
:FULLY-SPECIFIED
:DEGREES
1026
root -3.709751 33.076984 -0.191031 17.235125 -6.176043 -2.654850
Spine -12.142056 -6.379710 2.942414
Head 0.767232 -0.762402 1.214736
LeftShoulder -19.903048 40.859183 16.830994
LeftArm 63.859072 -43.468273 -63.812274
LeftForeArm 5.374624 -0.000000 -1.475238
LeftHand 8.269691 -0.000000 9.299751
LeftHandThumb1 -26.253704 0.000000 33.147579
RightShoulder -6.744197 -0.162288 -25.720016
RightArm 13.293229 10.981624 54.003130
RightForeArm -8.250330 0.000000 5.221388
RightHand 9.030880 -0.000000 -2.879656
RightHandThumb1 -24.326973 -0.000000 -32.862282
LeftUpLeg -14.330912 0.817064 3.988767
LeftLeg 23.853531 -0.000000 -0.000000
LeftFoot -7.793247 11.115613 -19.675127
LeftToeBase -26.385299 -0.000000 0.000000
RightUpLeg -24.910293 -18.852806 11.243728
RightLeg 3.695115 -0.000000 -0.000000
RightFoot -2.931118 -21.201287 6.687669
RightToeBase -4.596041 -0.000000 0.000000
1027
root -3.612411 33.108629 -0.304442 17.451320 -5.667093 -2.663699
Spine -12.272186 -6.626866 2.941464
Head 0.646739 -0.914432 1.453810
LeftShoulder -19.819970 40.892070 17.030169
LeftArm 63.803423 -43.878598 -63.716667
LeftForeArm 5.529027 -0.000000 -1.394518
LeftHand 8.145185 -0.000000 9.438058
LeftHandThumb1 -26.253704 0.000000 33.147579
RightShoulder -6.789945 -0.225444 -25.668148
RightArm 13.418422 11.108213 53.855541
RightForeArm -8.436356 -0.000000 5.383910
RightHand 9.021590 0.000000 -3.048592
RightHandThumb1 -24.326973 -0.000000 -32.862282
LeftUpLeg -14.376888 0.827565 3.859879
LeftLeg 22.898364 -0.000000 -0.000000
LeftFoot -7.808778 11.384202 -19.682230
LeftToeBase -25.736739 -0.000000 0.000000
RightUpLeg -24.913880 -18.540475 11.038873
RightLeg 3.252630 -0.000000 -0.000000
RightFoot -2.905165 -19.857440 7.009508
RightToeBase -4.403673 -0.000000 0.000000
1028
root -3.517815 33.143734 -0.415694 17.627867 -5.221529 -2.680012
Spine -12.355198 -6.847235 2.934539
Head 0.523446 -1.013742 1.669230
LeftShoulder -19.804671 40.962060 17.152056
LeftArm 63.799338 -44.296938 -63.575940
LeftForeArm 5.569645 -0.000000 -1.428528
LeftHand 8.220824 0.000000 9.658675
LeftHandThumb1 -26.253704 0.000000 33.147579
RightShoulder -6.834909 -0.200571 -25.643515
RightArm 13.531688 11.136283 53.716089
RightForeArm -8.438305 -0.000000 5.494883
RightHand 8.917519 -0.000000 -2.846871
RightHandThumb1 -24.326973 -0.000000 -32.862282
LeftUpLeg -14.389581 0.900151 3.718206
LeftLeg 21.963276 -0.000000 -0.000000
LeftFoot -7.756198 11.639489 -19.643259
LeftToeBase -25.051581 -0.000000 0.000000
RightUpLeg -24.773682 -17.805487 10.649854
RightLeg 2.817706 -0.000000 -0.000000
RightFoot -2.762239 -18.382636 7.062041
RightToeBase -4.508684 -0.000000 0.000000
1029
root -3.425923 33.181571 -0.527920 17.812486 -4.941100 -2.725996
Spine -12.443205 -6.896743 2.900584
Head 0.443473 -1.130911 1.874151
LeftShoulder -19.683785 40.911938 17.388978
LeftArm 63.664249 -44.728804 -63.444221
LeftForeArm 5.699200 -0.000000 -1.418855
LeftHand 8.241167 -0.000000 9.795937
LeftHandThumb1 -26.253704 0.000000 33.147579
RightShoulder -6.886135 -0.132851 -25.625594
RightArm 13.616391 11.076708 53.532702
RightForeArm -8.471125 -0.000000 5.549883
RightHand 8.946270 -0.000000 -2.959290
RightHandThumb1 -24.326973 -0.000000 -32.862282
LeftUpLeg -14.432316 1.137209 3.559132
LeftLeg 21.106072 -0.000000 -0.000000
LeftFoot -7.625393 11.863314 -19.602021
LeftToeBase -24.481239 -0.000000 0.000000
RightUpLeg -24.568984 -16.559021 10.095498
RightLeg 2.451894 -0.000000 -0.000000
RightFoot -2.447369 -17.003314 6.566640
RightToeBase -4.802590 -0.000000 0.000000
